<?xml version="1.0" ?><!DOCTYPE svg  PUBLIC '-//W3C//DTD SVG 1.1//EN'  'http://www.w3.org/Graphics/SVG/1.1/DTD/svg11.dtd'><svg enable-background="new 0 0 512 512" height="512px" id="icon" version="1.1" viewBox="0 0 512 512" width="512px" xml:space="preserve" xmlns="http://www.w3.org/2000/svg" xmlns:xlink="http://www.w3.org/1999/xlink"><g><path d="M425.467,292.601l55.613-55.316l-55.613-55.909V45.759H341.26v50.959L255.997,11L30.92,237.284   l55.613,55.316v199.379H37.298V501h437.404v-9.021h-49.235V292.601z M350.28,54.78h66.166v117.526l-66.166-66.519V54.78z    M416.446,491.979h-64.815v-37.91c16.789-2.219,29.798-16.593,29.798-33.976c0-18.916-15.393-34.307-34.309-34.307   c-18.921,0-34.308,15.391-34.308,34.307c0,17.383,13.009,31.757,29.798,33.976v37.91h-54.034V385.787H258.78v-37.3   c16.789-2.22,29.796-16.593,29.796-33.976c0-18.916-15.385-34.308-34.305-34.308c-18.919,0-34.309,15.392-34.309,34.308   c0,17.383,13.009,31.756,29.798,33.976v46.32h29.796v97.172h-50.573v-76.396h-30.126c-2.023-15.31-14.155-27.441-29.466-29.465   v-37.631c16.79-2.22,29.798-16.593,29.798-33.976c0-18.916-15.389-34.308-34.308-34.308s-34.308,15.392-34.308,34.308   c0,17.383,13.008,31.756,29.798,33.976v37.631c-16.79,2.22-29.798,16.593-29.798,33.976c0,18.916,15.389,34.308,34.308,34.308   c17.386,0,31.756-13.007,33.976-29.798h21.105v67.376H95.554V292.589l160.443-161.307l160.449,161.307V491.979z M347.12,445.381   c-13.947,0-25.287-11.346-25.287-25.287c0-13.94,11.34-25.286,25.287-25.286c13.942,0,25.288,11.346,25.288,25.286   C372.408,434.035,361.063,445.381,347.12,445.381z M254.271,339.799c-13.945,0-25.288-11.346-25.288-25.287   s11.343-25.287,25.288-25.287s25.285,11.346,25.285,25.287S268.217,339.799,254.271,339.799z M190.169,420.094   c0,13.941-11.343,25.287-25.287,25.287s-25.287-11.346-25.287-25.287c0-13.94,11.343-25.286,25.287-25.286   S190.169,406.153,190.169,420.094z M139.595,314.512c0-13.941,11.343-25.287,25.287-25.287s25.287,11.346,25.287,25.287   s-11.343,25.287-25.287,25.287S139.595,328.453,139.595,314.512z M255.997,118.491L91.025,284.35l-47.351-47.101L255.997,23.79   l212.327,213.458l-47.35,47.101L255.997,118.491z" fill="#1D1D1B"/><path d="M347.12,348.818c18.916,0,34.309-15.392,34.309-34.307c0-18.916-15.393-34.308-34.309-34.308   c-18.921,0-34.308,15.392-34.308,34.308C312.813,333.427,328.199,348.818,347.12,348.818z M347.12,289.225   c13.942,0,25.288,11.346,25.288,25.287s-11.346,25.287-25.288,25.287c-13.947,0-25.287-11.346-25.287-25.287   S333.173,289.225,347.12,289.225z" fill="#1D1D1B"/></g></svg>