<svg width="512" height="512" xmlns="http://www.w3.org/2000/svg">

 <g>
  <title>background</title>
  <rect fill="none" id="canvas_background" height="402" width="582" y="-1" x="-1"/>
 </g>
 <g>
  <title>Layer 1</title>
  <g id="svg_1">
   <path id="svg_2" fill="#ffffff" d="m425.467,292.601l55.613,-55.316l-55.613,-55.909l0,-135.617l-84.207,0l0,50.959l-85.263,-85.718l-225.077,226.284l55.613,55.316l0,199.379l-49.235,0l0,9.021l437.404,0l0,-9.021l-49.235,0l0,-199.378zm-75.187,-237.821l66.166,0l0,117.526l-66.166,-66.519l0,-51.007zm66.166,437.199l-64.815,0l0,-37.91c16.789,-2.219 29.798,-16.593 29.798,-33.976c0,-18.916 -15.393,-34.307 -34.309,-34.307c-18.921,0 -34.308,15.391 -34.308,34.307c0,17.383 13.009,31.757 29.798,33.976l0,37.91l-54.034,0l0,-106.192l-29.796,0l0,-37.3c16.789,-2.22 29.796,-16.593 29.796,-33.976c0,-18.916 -15.385,-34.308 -34.305,-34.308c-18.919,0 -34.309,15.392 -34.309,34.308c0,17.383 13.009,31.756 29.798,33.976l0,46.32l29.796,0l0,97.172l-50.573,0l0,-76.396l-30.126,0c-2.023,-15.31 -14.155,-27.441 -29.466,-29.465l0,-37.631c16.79,-2.22 29.798,-16.593 29.798,-33.976c0,-18.916 -15.389,-34.308 -34.308,-34.308s-34.308,15.392 -34.308,34.308c0,17.383 13.008,31.756 29.798,33.976l0,37.631c-16.79,2.22 -29.798,16.593 -29.798,33.976c0,18.916 15.389,34.308 34.308,34.308c17.386,0 31.756,-13.007 33.976,-29.798l21.105,0l0,67.376l-124.408,0l0,-199.391l160.443,-161.307l160.449,161.307l0,199.39zm-69.326,-46.598c-13.947,0 -25.287,-11.346 -25.287,-25.287c0,-13.94 11.34,-25.286 25.287,-25.286c13.942,0 25.288,11.346 25.288,25.286c0,13.941 -11.345,25.287 -25.288,25.287zm-92.849,-105.582c-13.945,0 -25.288,-11.346 -25.288,-25.287s11.343,-25.287 25.288,-25.287s25.285,11.346 25.285,25.287s-11.339,25.287 -25.285,25.287zm-64.102,80.295c0,13.941 -11.343,25.287 -25.287,25.287s-25.287,-11.346 -25.287,-25.287c0,-13.94 11.343,-25.286 25.287,-25.286s25.287,11.345 25.287,25.286zm-50.574,-105.582c0,-13.941 11.343,-25.287 25.287,-25.287s25.287,11.346 25.287,25.287s-11.343,25.287 -25.287,25.287s-25.287,-11.346 -25.287,-25.287zm116.402,-196.021l-164.972,165.859l-47.351,-47.101l212.323,-213.459l212.327,213.458l-47.35,47.101l-164.977,-165.858z"/>
   <path id="svg_3" fill="#ffffff" d="m347.12,348.818c18.916,0 34.309,-15.392 34.309,-34.307c0,-18.916 -15.393,-34.308 -34.309,-34.308c-18.921,0 -34.308,15.392 -34.308,34.308c0.001,18.916 15.387,34.307 34.308,34.307zm0,-59.593c13.942,0 25.288,11.346 25.288,25.287s-11.346,25.287 -25.288,25.287c-13.947,0 -25.287,-11.346 -25.287,-25.287s11.34,-25.287 25.287,-25.287z"/>
  </g>
 </g>
</svg>